HIERARCHY
ROOT Hips
{
  OFFSET 53.5923 86.7426 27.3259
  CHANNELS 6 Xposition Yposition Zposition Zrotation Xrotation Yrotation
  JOINT spine
  {
    OFFSET 0 6.84637 0.3937
    CHANNELS 3 Zrotation Xrotation Yrotation
    JOINT spine1
    {
      OFFSET 0 9.49621 0
      CHANNELS 3 Zrotation Xrotation Yrotation
      JOINT spine2
      {
        OFFSET 0 9.09909 0
        CHANNELS 3 Zrotation Xrotation Yrotation
        JOINT Neck
        {
          OFFSET 0 23.3612 1.11378
          CHANNELS 3 Zrotation Xrotation Yrotation
          JOINT Head
          {
            OFFSET 0 7.05802 0
            CHANNELS 3 Zrotation Xrotation Yrotation
            End Site
            {
              OFFSET 0 17.0844 -5.63419
            }
          }
        }
        JOINT RightShoulder
        {
          OFFSET -3.83136 9.82631 -0.533491
          CHANNELS 3 Zrotation Xrotation Yrotation
          JOINT RightArm
          {
            OFFSET 0 12.8881 0
            CHANNELS 3 Zrotation Xrotation Yrotation
            JOINT RightArmRoll
            {
              OFFSET 0 6.50617 0
              CHANNELS 3 Zrotation Xrotation Yrotation
              JOINT RightForeArm
              {
                OFFSET 0 18.9501 0
                CHANNELS 3 Zrotation Xrotation Yrotation
                JOINT RightForeArmRoll
                {
                  OFFSET 0 7.30093 0
                  CHANNELS 3 Zrotation Xrotation Yrotation
                  JOINT RightHand
                  {
                    OFFSET 0 14.6514 0
                    CHANNELS 3 Zrotation Xrotation Yrotation
                    End Site
                    {
                      OFFSET 0 0 0
                    }
                  }
                }
              }
            }
          }
        }
        JOINT LeftShoulder
        {
          OFFSET 3.83136 9.82631 -0.533491
          CHANNELS 3 Zrotation Xrotation Yrotation
          JOINT LeftArm
          {
            OFFSET 0 12.8881 0
            CHANNELS 3 Zrotation Xrotation Yrotation
            JOINT LeftArmRoll
            {
              OFFSET 0 6.50617 0
              CHANNELS 3 Zrotation Xrotation Yrotation
              JOINT LeftForeArm
              {
                OFFSET 0 18.9501 0
                CHANNELS 3 Zrotation Xrotation Yrotation
                JOINT LeftForeArmRoll
                {
                  OFFSET 0 7.30092 0
                  CHANNELS 3 Zrotation Xrotation Yrotation
                  JOINT LeftHand
                  {
                    OFFSET 0 14.6514 0
                    CHANNELS 3 Zrotation Xrotation Yrotation
                    End Site
                    {
                      OFFSET 0 0 0
                    }
                  }
                }
              }
            }
          }
        }
      }
    }
  }
  JOINT RightUpLeg
  {
    OFFSET -6.06837 -1.11278 -0.933477
    CHANNELS 3 Zrotation Xrotation Yrotation
    JOINT RightUpLegRoll
    {
      OFFSET 0 17.1796 0
      CHANNELS 3 Zrotation Xrotation Yrotation
      JOINT RightLeg
      {
        OFFSET 0 -21.2743 0
        CHANNELS 3 Zrotation Xrotation Yrotation
        JOINT RightLegRoll
        {
          OFFSET 0 21.3439 0
          CHANNELS 3 Zrotation Xrotation Yrotation
          JOINT RightFoot
          {
            OFFSET 0 17.7652 0
            CHANNELS 3 Zrotation Xrotation Yrotation
            JOINT RightToeBase
            {
              OFFSET 0 14.8508 0
              CHANNELS 3 Zrotation Xrotation Yrotation
              End Site
              {
                OFFSET 0.0062947 7.19213 -0.829005
              }
            }
          }
        }
      }
    }
  }
  JOINT LeftUpLeg
  {
    OFFSET 6.06837 -1.11278 -0.933477
    CHANNELS 3 Zrotation Xrotation Yrotation
    JOINT LeftUpLegRoll
    {
      OFFSET 0 17.1797 0
      CHANNELS 3 Zrotation Xrotation Yrotation
      JOINT LeftLeg
      {
        OFFSET 0 21.2742 0
        CHANNELS 3 Zrotation Xrotation Yrotation
        JOINT LeftLegRoll
        {
          OFFSET 0 21.5412 0
          CHANNELS 3 Zrotation Xrotation Yrotation
          JOINT LeftFoot
          {
            OFFSET 0 17.5679 0
            CHANNELS 3 Zrotation Xrotation Yrotation
            JOINT LeftToeBase
            {
              OFFSET 0 14.8508 0
              CHANNELS 3 Zrotation Xrotation Yrotation
              End Site
              {
                OFFSET -0.0282102 7.19213 -0.829005
              }
            }
          }
        }
      }
    }
  }
}
MOTION
Frames: 5
Frame Time: 0.00208333
52.5293 53.6546 -4.27317 0.293486 -22.8247 -5.43109 1.55851 0.658364 4.48754 3.03344 5.41764 8.77836 2.93396 7.05343 8.73952 -5.14415 20.6394 -10.0533 4.4606 3.3178 -11.745 59.1767 -16.4192 -10.3047 105.283 41.113 -32.4913 -1.2826e-005 5.61989e-006 -5.66249e-006 23.488 29.1642 -2.51329 -6.29621e-006 1.36918e-006 -2.99999 8.02941 -4.95143 0.697588 -73.1558 4.82392 -0.578618 -124.209 45.7856 7.8539 3.30716e-006 4.69622e-007 1.37257e-005 -26.8387 7.28845 1.51653 6.87735e-006 -4.57413e-006 3 -8.03027 -4.95137 -0.697743 161.405 61.609 19.6369 -180 3.05053e-005 178.374 -160.346 85.5765 161.074 -7.89379e-007 1.71256e-006 1.99243 -19.9838 64.4219 16.6885 8.13649 25.2327 -3.48774 -153.102 58.0718 -30.8824 4.5067e-006 -1.99009e-005 -0.818758 44.8427 -87.8574 47.3706 -3.03726e-006 -2.56543e-006 -1.9947 20.2672 67.4956 -19.1 -8.1365 25.2326 3.48774 
52.5327 53.6538 -4.26791 0.300153 -22.8207 -5.42813 1.55624 0.660472 4.4858 3.02836 5.42317 8.77368 2.92892 7.05898 8.73493 -5.14562 20.6551 -10.0493 4.46109 3.30232 -11.7414 59.1765 -16.4143 -10.3016 105.3 41.128 -32.4914 -1.2826e-005 5.61989e-006 -5.66249e-006 23.4935 29.1377 -2.51053 -6.29621e-006 1.36918e-006 -2.99999 8.02941 -4.95143 0.697588 -73.151 4.81305 -0.574428 -124.213 45.794 7.86512 3.30716e-006 4.69622e-007 1.37257e-005 -26.8438 7.26517 1.5083 6.87735e-006 -4.57413e-006 3 -8.03027 -4.95137 -0.697743 161.4 61.6149 19.6412 -180 3.05053e-005 178.373 -160.358 85.5723 161.087 -7.89379e-007 1.71256e-006 1.99336 -19.9841 64.4168 16.6847 8.13649 25.2327 -3.48774 -153.1 58.0756 -30.8869 4.5067e-006 -1.99009e-005 -0.818692 44.8307 -87.8576 47.3644 -3.03726e-006 -2.56543e-006 -1.99467 20.2661 67.4941 -19.0995 -8.1365 25.2326 3.48774 
52.5337 53.654 -4.2692 0.306205 -22.8169 -5.42532 1.55417 0.662518 4.48412 3.02369 5.42866 8.76907 2.92428 7.06448 8.73041 -5.14722 20.6712 -10.0454 4.46113 3.28526 -11.7378 59.1752 -16.4098 -10.2988 105.319 41.1428 -32.4916 -1.2826e-005 5.61989e-006 -5.66249e-006 23.4991 29.1108 -2.50772 -6.29621e-006 1.36918e-006 -2.99999 8.02941 -4.95143 0.697588 -73.1467 4.80227 -0.570207 -124.216 45.8019 7.8759 3.30716e-006 4.69622e-007 1.37257e-005 -26.8488 7.24171 1.50002 6.87735e-006 -4.57413e-006 3 -8.03027 -4.95137 -0.697743 161.395 61.6205 19.6455 -180 3.05053e-005 178.372 -160.375 85.5678 161.105 -7.89379e-007 1.71256e-006 1.99435 -19.9847 64.4116 16.6808 8.13649 25.2327 -3.48774 -153.097 58.0792 -30.8918 4.5067e-006 -1.99009e-005 -0.818594 44.8247 -87.8578 47.3642 -3.03726e-006 -2.56543e-006 -1.99468 20.2653 67.4926 -19.0991 -8.1365 25.2326 3.48774 
52.5336 53.6523 -4.27428 0.311824 -22.8132 -5.42262 1.55225 0.66452 4.4825 3.01931 5.43411 8.76449 2.91994 7.06994 8.72592 -5.14889 20.6876 -10.0415 4.46084 3.2671 -11.7343 59.1734 -16.4056 -10.2962 105.337 41.1575 -32.492 -1.2826e-005 5.61989e-006 -5.66249e-006 23.5048 29.0836 -2.50487 -6.29621e-006 1.36918e-006 -2.99999 8.02941 -4.95143 0.697588 -73.1428 4.79154 -0.565965 -124.219 45.8096 7.88636 3.30716e-006 4.69622e-007 1.37257e-005 -26.8538 7.21814 1.49171 6.87735e-006 -4.57413e-006 3 -8.03027 -4.95137 -0.697743 161.391 61.6258 19.6499 -180 3.05052e-005 178.37 -160.397 85.5632 161.127 -7.89379e-007 1.71256e-006 1.99537 -19.9855 64.4063 16.6768 8.13649 25.2327 -3.48774 -153.093 58.0826 -30.8971 4.5067e-006 -1.99009e-005 -0.818473 44.8233 -87.858 47.3686 -3.03726e-006 -2.56543e-006 -1.99472 20.2646 67.4911 -19.0986 -8.1365 25.2326 3.48774 
52.5351 53.6514 -4.27388 0.317196 -22.8096 -5.41997 1.55042 0.666497 4.48091 3.0151 5.43953 8.75995 2.91575 7.07538 8.72146 -5.15062 20.7042 -10.0376 4.46037 3.24831 -11.7309 59.1711 -16.4015 -10.2937 105.356 41.1721 -32.4924 -1.2826e-005 5.61989e-006 -5.66249e-006 23.5104 29.0563 -2.502 -6.29621e-006 1.36918e-006 -2.99999 8.02941 -4.95143 0.697588 -73.1389 4.78085 -0.561712 -124.223 45.8171 7.89665 3.30716e-006 4.69622e-007 1.37257e-005 -26.8588 7.1945 1.48338 6.87735e-006 -4.57413e-006 3 -8.03027 -4.95137 -0.697743 161.386 61.6309 19.6543 -180 3.05052e-005 178.369 -160.421 85.5586 161.152 -7.89379e-007 1.71256e-006 1.99641 -19.9865 64.401 16.6728 8.13649 25.2327 -3.48774 -153.089 58.086 -30.9025 4.5067e-006 -1.99009e-005 -0.81834 44.824 -87.8582 47.3751 -3.03726e-006 -2.56543e-006 -1.99477 20.264 67.4897 -19.0983 -8.1365 25.2326 3.48774 
